<?xml version="1.0" encoding="UTF-8" standalone="no"?>
<!DOCTYPE svg PUBLIC "-//W3C//DTD SVG 1.1//EN" "http://www.w3.org/Graphics/SVG/1.1/DTD/svg11.dtd">
<svg width="100%" height="100%" viewBox="0 0 1581 244" version="1.1" xmlns="http://www.w3.org/2000/svg" xmlns:xlink="http://www.w3.org/1999/xlink" xml:space="preserve" xmlns:serif="http://www.serif.com/" style="fill-rule:evenodd;clip-rule:evenodd;stroke-linejoin:round;stroke-miterlimit:2;">
    <g transform="matrix(1,0,0,1,-562.805,-2006.4)">
        <g transform="matrix(0.921807,-0.000640369,0.000640369,0.921807,112.827,685.717)">
            <g transform="matrix(300,0,0,300,763.267,1670.87)">
                <path d="M0.331,-0.67C0.393,-0.67 0.447,-0.661 0.494,-0.642C0.541,-0.623 0.581,-0.595 0.616,-0.558L0.533,-0.447C0.504,-0.477 0.473,-0.5 0.44,-0.515C0.407,-0.53 0.37,-0.537 0.328,-0.537C0.304,-0.537 0.284,-0.535 0.268,-0.529C0.253,-0.523 0.242,-0.516 0.235,-0.507C0.228,-0.497 0.225,-0.487 0.225,-0.475C0.225,-0.461 0.231,-0.449 0.244,-0.439C0.258,-0.43 0.279,-0.422 0.308,-0.415L0.419,-0.39C0.485,-0.375 0.533,-0.353 0.564,-0.323C0.594,-0.294 0.61,-0.255 0.61,-0.206C0.61,-0.159 0.598,-0.12 0.574,-0.088C0.55,-0.055 0.517,-0.031 0.475,-0.015C0.433,0.002 0.385,0.01 0.331,0.01C0.287,0.01 0.245,0.005 0.205,-0.005C0.165,-0.015 0.129,-0.028 0.097,-0.046C0.065,-0.064 0.038,-0.085 0.016,-0.108L0.099,-0.223C0.116,-0.204 0.136,-0.186 0.161,-0.171C0.185,-0.156 0.212,-0.144 0.241,-0.136C0.27,-0.127 0.299,-0.123 0.329,-0.123C0.352,-0.123 0.372,-0.125 0.387,-0.13C0.403,-0.135 0.414,-0.142 0.422,-0.151C0.429,-0.16 0.433,-0.171 0.433,-0.184C0.433,-0.198 0.428,-0.21 0.418,-0.22C0.408,-0.229 0.389,-0.237 0.361,-0.244L0.239,-0.271C0.202,-0.279 0.169,-0.291 0.139,-0.305C0.11,-0.32 0.087,-0.339 0.071,-0.364C0.055,-0.388 0.046,-0.419 0.046,-0.455C0.046,-0.497 0.058,-0.534 0.08,-0.566C0.103,-0.598 0.135,-0.624 0.178,-0.642C0.22,-0.661 0.272,-0.67 0.331,-0.67Z" style="fill:white;fill-rule:nonzero;"/>
            </g>
            <g transform="matrix(300,0,0,300,956.827,1670.87)">
                <path d="M0.27,-0.659L0.27,-0.178C0.27,-0.154 0.276,-0.137 0.287,-0.126C0.299,-0.116 0.315,-0.111 0.336,-0.111C0.352,-0.111 0.366,-0.113 0.377,-0.116C0.389,-0.12 0.4,-0.126 0.409,-0.133L0.427,-0.028C0.41,-0.016 0.39,-0.007 0.364,-0C0.338,0.007 0.313,0.01 0.286,0.01C0.248,0.01 0.215,0.005 0.188,-0.006C0.16,-0.016 0.138,-0.034 0.123,-0.057C0.108,-0.08 0.101,-0.112 0.1,-0.15L0.1,-0.612L0.27,-0.659ZM0.419,-0.5L0.419,-0.379L0.014,-0.379L0.014,-0.5L0.419,-0.5Z" style="fill:white;fill-rule:nonzero;"/>
            </g>
            <g transform="matrix(300,0,0,300,1087.93,1670.87)">
                <path d="M0.34,-0.317C0.34,-0.34 0.333,-0.359 0.32,-0.372C0.308,-0.386 0.29,-0.393 0.268,-0.393C0.246,-0.393 0.227,-0.387 0.212,-0.376C0.196,-0.366 0.185,-0.346 0.179,-0.318L0.035,-0.352C0.044,-0.4 0.069,-0.438 0.109,-0.467C0.149,-0.496 0.206,-0.51 0.278,-0.51C0.327,-0.51 0.368,-0.503 0.403,-0.489C0.437,-0.475 0.464,-0.453 0.482,-0.425C0.5,-0.396 0.509,-0.361 0.509,-0.32L0.509,-0.137C0.509,-0.111 0.521,-0.098 0.544,-0.098C0.556,-0.098 0.566,-0.099 0.573,-0.102L0.563,-0.005C0.543,0.005 0.519,0.009 0.49,0.009C0.464,0.009 0.441,0.005 0.421,-0.003C0.401,-0.012 0.386,-0.024 0.374,-0.041C0.363,-0.058 0.357,-0.08 0.357,-0.106L0.357,-0.112L0.376,-0.119C0.376,-0.09 0.367,-0.066 0.351,-0.047C0.334,-0.028 0.312,-0.014 0.285,-0.004C0.258,0.005 0.23,0.01 0.2,0.01C0.166,0.01 0.136,0.005 0.111,-0.006C0.086,-0.016 0.066,-0.032 0.053,-0.052C0.039,-0.073 0.032,-0.098 0.032,-0.128C0.032,-0.164 0.043,-0.194 0.065,-0.218C0.087,-0.241 0.121,-0.258 0.167,-0.267L0.356,-0.306L0.355,-0.216L0.259,-0.196C0.239,-0.192 0.224,-0.186 0.215,-0.179C0.205,-0.171 0.2,-0.16 0.2,-0.144C0.2,-0.129 0.205,-0.118 0.216,-0.111C0.227,-0.104 0.239,-0.1 0.254,-0.1C0.265,-0.1 0.276,-0.102 0.286,-0.105C0.297,-0.109 0.306,-0.114 0.314,-0.121C0.322,-0.128 0.328,-0.137 0.333,-0.147C0.338,-0.157 0.34,-0.17 0.34,-0.185L0.34,-0.317Z" style="fill:white;fill-rule:nonzero;"/>
            </g>
            <g transform="matrix(300,0,0,300,1261.68,1670.87)">
                <path d="M0.061,-0L0.061,-0.5L0.211,-0.5L0.218,-0.392C0.231,-0.429 0.249,-0.458 0.274,-0.479C0.299,-0.5 0.331,-0.51 0.37,-0.51C0.383,-0.51 0.394,-0.509 0.403,-0.507C0.412,-0.505 0.419,-0.502 0.424,-0.499L0.407,-0.359C0.4,-0.361 0.392,-0.363 0.381,-0.365C0.371,-0.367 0.359,-0.368 0.344,-0.368C0.324,-0.368 0.305,-0.363 0.288,-0.355C0.271,-0.346 0.257,-0.334 0.246,-0.317C0.236,-0.3 0.231,-0.278 0.231,-0.252L0.231,-0L0.061,-0Z" style="fill:white;fill-rule:nonzero;"/>
            </g>
            <g transform="matrix(300,0,0,300,1384.25,1670.87)">
                <path d="M0.271,0.01C0.221,0.01 0.175,0.002 0.132,-0.015C0.089,-0.031 0.053,-0.054 0.025,-0.085L0.105,-0.179C0.121,-0.158 0.143,-0.14 0.171,-0.126C0.199,-0.111 0.23,-0.104 0.264,-0.104C0.284,-0.104 0.301,-0.107 0.315,-0.113C0.328,-0.119 0.335,-0.128 0.335,-0.141C0.335,-0.15 0.331,-0.158 0.325,-0.163C0.318,-0.169 0.305,-0.174 0.285,-0.178L0.215,-0.192C0.152,-0.205 0.108,-0.224 0.081,-0.249C0.055,-0.274 0.042,-0.306 0.042,-0.347C0.042,-0.374 0.05,-0.4 0.067,-0.425C0.084,-0.45 0.109,-0.47 0.144,-0.486C0.179,-0.502 0.223,-0.51 0.277,-0.51C0.328,-0.51 0.373,-0.503 0.411,-0.488C0.45,-0.473 0.48,-0.452 0.503,-0.424L0.422,-0.332C0.406,-0.352 0.386,-0.368 0.36,-0.379C0.334,-0.39 0.309,-0.396 0.284,-0.396C0.268,-0.396 0.255,-0.394 0.244,-0.391C0.233,-0.388 0.224,-0.384 0.219,-0.379C0.214,-0.373 0.211,-0.367 0.211,-0.359C0.211,-0.35 0.215,-0.343 0.224,-0.336C0.232,-0.33 0.248,-0.324 0.27,-0.32L0.361,-0.302C0.412,-0.292 0.449,-0.275 0.472,-0.251C0.494,-0.226 0.506,-0.197 0.506,-0.162C0.506,-0.129 0.497,-0.1 0.48,-0.074C0.463,-0.048 0.437,-0.028 0.402,-0.013C0.367,0.002 0.324,0.01 0.271,0.01Z" style="fill:white;fill-rule:nonzero;"/>
            </g>
            <g transform="matrix(300,0,0,300,1544.3,1670.87)">
                <path d="M0.061,-0L0.061,-0.712L0.231,-0.712L0.231,-0.409C0.246,-0.442 0.267,-0.468 0.294,-0.485C0.321,-0.502 0.353,-0.51 0.389,-0.51C0.424,-0.51 0.454,-0.503 0.48,-0.49C0.505,-0.477 0.525,-0.457 0.54,-0.431C0.554,-0.405 0.562,-0.372 0.562,-0.333L0.562,-0L0.392,-0L0.392,-0.286C0.392,-0.322 0.385,-0.346 0.372,-0.36C0.359,-0.374 0.342,-0.381 0.321,-0.381C0.305,-0.381 0.29,-0.377 0.276,-0.369C0.262,-0.361 0.251,-0.348 0.243,-0.331C0.235,-0.314 0.231,-0.291 0.231,-0.263L0.231,-0L0.061,-0Z" style="fill:white;fill-rule:nonzero;"/>
            </g>
            <g transform="matrix(300,0,0,300,1730.18,1670.87)">
                <path d="M0.305,0.01C0.249,0.01 0.202,-0 0.161,-0.021C0.121,-0.041 0.09,-0.071 0.068,-0.11C0.046,-0.148 0.035,-0.195 0.035,-0.25C0.035,-0.305 0.046,-0.352 0.068,-0.39C0.09,-0.429 0.121,-0.459 0.161,-0.479C0.2,-0.5 0.246,-0.51 0.297,-0.51C0.35,-0.51 0.395,-0.5 0.432,-0.48C0.468,-0.459 0.497,-0.431 0.516,-0.396C0.535,-0.36 0.545,-0.319 0.545,-0.273C0.545,-0.261 0.545,-0.249 0.544,-0.237C0.543,-0.225 0.542,-0.215 0.541,-0.207L0.145,-0.207L0.145,-0.298L0.466,-0.298L0.385,-0.267C0.385,-0.307 0.378,-0.338 0.363,-0.359C0.349,-0.38 0.327,-0.391 0.297,-0.391C0.275,-0.391 0.257,-0.386 0.242,-0.376C0.227,-0.366 0.216,-0.35 0.209,-0.329C0.201,-0.308 0.197,-0.281 0.197,-0.247C0.197,-0.214 0.202,-0.188 0.21,-0.168C0.219,-0.147 0.231,-0.133 0.247,-0.124C0.263,-0.115 0.282,-0.11 0.305,-0.11C0.33,-0.11 0.35,-0.115 0.365,-0.125C0.38,-0.135 0.392,-0.149 0.399,-0.167L0.535,-0.122C0.526,-0.093 0.51,-0.069 0.487,-0.05C0.464,-0.03 0.436,-0.015 0.405,-0.005C0.373,0.005 0.34,0.01 0.305,0.01Z" style="fill:white;fill-rule:nonzero;"/>
            </g>
            <g transform="matrix(300,0,0,300,1903.99,1670.87)">
                <path d="M0.305,0.01C0.249,0.01 0.202,-0 0.161,-0.021C0.121,-0.041 0.09,-0.071 0.068,-0.11C0.046,-0.148 0.035,-0.195 0.035,-0.25C0.035,-0.305 0.046,-0.352 0.068,-0.39C0.09,-0.429 0.121,-0.459 0.161,-0.479C0.2,-0.5 0.246,-0.51 0.297,-0.51C0.35,-0.51 0.395,-0.5 0.432,-0.48C0.468,-0.459 0.497,-0.431 0.516,-0.396C0.535,-0.36 0.545,-0.319 0.545,-0.273C0.545,-0.261 0.545,-0.249 0.544,-0.237C0.543,-0.225 0.542,-0.215 0.541,-0.207L0.145,-0.207L0.145,-0.298L0.466,-0.298L0.385,-0.267C0.385,-0.307 0.378,-0.338 0.363,-0.359C0.349,-0.38 0.327,-0.391 0.297,-0.391C0.275,-0.391 0.257,-0.386 0.242,-0.376C0.227,-0.366 0.216,-0.35 0.209,-0.329C0.201,-0.308 0.197,-0.281 0.197,-0.247C0.197,-0.214 0.202,-0.188 0.21,-0.168C0.219,-0.147 0.231,-0.133 0.247,-0.124C0.263,-0.115 0.282,-0.11 0.305,-0.11C0.33,-0.11 0.35,-0.115 0.365,-0.125C0.38,-0.135 0.392,-0.149 0.399,-0.167L0.535,-0.122C0.526,-0.093 0.51,-0.069 0.487,-0.05C0.464,-0.03 0.436,-0.015 0.405,-0.005C0.373,0.005 0.34,0.01 0.305,0.01Z" style="fill:white;fill-rule:nonzero;"/>
            </g>
            <g transform="matrix(300,0,0,300,2073.29,1670.87)">
                <path d="M0.27,-0.659L0.27,-0.178C0.27,-0.154 0.276,-0.137 0.287,-0.126C0.299,-0.116 0.315,-0.111 0.336,-0.111C0.352,-0.111 0.366,-0.113 0.377,-0.116C0.389,-0.12 0.4,-0.126 0.409,-0.133L0.427,-0.028C0.41,-0.016 0.39,-0.007 0.364,-0C0.338,0.007 0.313,0.01 0.286,0.01C0.248,0.01 0.215,0.005 0.188,-0.006C0.16,-0.016 0.138,-0.034 0.123,-0.057C0.108,-0.08 0.101,-0.112 0.1,-0.15L0.1,-0.612L0.27,-0.659ZM0.419,-0.5L0.419,-0.379L0.014,-0.379L0.014,-0.5L0.419,-0.5Z" style="fill:white;fill-rule:nonzero;"/>
            </g>
            <g transform="matrix(300,0,0,300,2204.39,1670.87)">
            </g>
        </g>
        <g transform="matrix(1.02166,0,0,1.02166,16.7673,859.524)">
            <g transform="matrix(1.09312,0,0,1,-67.6907,-2.62901e-13)">
                <path d="M669.134,1122.56L726.898,1180.32L726.898,1334.33C726.898,1348.91 715.055,1360.76 700.468,1360.76L577.285,1360.76C562.698,1360.76 550.855,1348.91 550.855,1334.33L550.855,1148.99C550.855,1134.4 562.698,1122.56 577.285,1122.56L669.134,1122.56Z" style="fill:rgb(25,134,66);"/>
            </g>
            <g transform="matrix(1.4389,0,0,1.4389,-1127.78,-29.845)">
                <path d="M1248.81,800.891L1288.96,841.036L1248.81,841.036L1248.81,800.891Z" style="fill:white;fill-opacity:0.4;"/>
            </g>
            <g transform="matrix(4.60591e-17,-0.752202,0.752202,4.60591e-17,-1440.3,1887.07)">
                <g transform="matrix(454.21,0,0,454.21,727.86,2993.42)">
                    <path d="M0.126,-0.358C0.114,-0.365 0.107,-0.375 0.105,-0.386C0.103,-0.397 0.106,-0.409 0.115,-0.422L0.179,-0.52L0.197,-0.494L0.08,-0.488C0.065,-0.487 0.052,-0.491 0.043,-0.498C0.034,-0.505 0.029,-0.515 0.029,-0.529C0.029,-0.542 0.034,-0.553 0.043,-0.56C0.052,-0.567 0.065,-0.57 0.08,-0.569L0.197,-0.562L0.18,-0.536L0.116,-0.635C0.107,-0.648 0.104,-0.661 0.106,-0.672C0.108,-0.683 0.115,-0.692 0.127,-0.699C0.138,-0.706 0.15,-0.707 0.161,-0.702C0.172,-0.697 0.181,-0.687 0.188,-0.673L0.234,-0.577L0.219,-0.577L0.265,-0.673C0.272,-0.687 0.281,-0.697 0.292,-0.702C0.303,-0.707 0.315,-0.706 0.327,-0.699C0.339,-0.692 0.346,-0.682 0.348,-0.671C0.349,-0.66 0.346,-0.647 0.337,-0.634L0.273,-0.537L0.256,-0.562L0.373,-0.569C0.388,-0.57 0.401,-0.567 0.41,-0.56C0.419,-0.553 0.424,-0.542 0.424,-0.529C0.424,-0.515 0.419,-0.505 0.41,-0.498C0.401,-0.491 0.388,-0.487 0.373,-0.488L0.256,-0.494L0.273,-0.52L0.337,-0.422C0.346,-0.409 0.349,-0.398 0.348,-0.387C0.346,-0.376 0.339,-0.366 0.327,-0.359C0.314,-0.352 0.303,-0.351 0.292,-0.356C0.281,-0.361 0.272,-0.37 0.265,-0.384L0.219,-0.481L0.234,-0.481L0.187,-0.384C0.18,-0.37 0.171,-0.361 0.161,-0.356C0.15,-0.351 0.138,-0.351 0.126,-0.358Z" style="fill:white;fill-rule:nonzero;"/>
                </g>
                <g transform="matrix(454.21,0,0,454.21,933.617,2993.42)">
                </g>
            </g>
        </g>
    </g>
</svg>
